<svg width="176" height="66" viewBox="0 0 176 66" fill="none" xmlns="http://www.w3.org/2000/svg">
<g clip-path="url(#clip0_1426_2349)">
<path d="M73.0157 35.0079V62.7385H65.9633V58.616L65.488 59.3048C64.6161 60.5619 63.4396 61.5772 62.0687 62.2561C60.6447 62.9681 58.8647 63.3383 56.7482 63.3383C53.6279 63.3383 51.1519 62.4483 49.3897 60.6808C47.6275 58.9132 46.7197 56.1169 46.7197 52.3575V35.0079H54.1957V51.156C54.1957 54.9972 55.8796 56.9464 59.2029 56.9464C61.1609 56.9464 62.7184 56.2913 63.8451 54.9883C64.9718 53.6854 65.5308 51.8288 65.5308 49.4116V35.0043L73.0157 35.0079Z" fill="#3993DD"/>
<path d="M86.1987 45.9477H78.7227V62.7402H86.1987V45.9477Z" fill="#3993DD"/>
<path d="M86.7986 38.5358C86.7986 39.7569 86.4123 40.727 85.6185 41.5048C84.8246 42.2827 83.7583 42.6654 82.4322 42.6654C81.1061 42.6654 80.0488 42.2738 79.2799 41.5066C78.5109 40.7394 78.1211 39.7391 78.1211 38.5358C78.1211 37.3325 78.5127 36.3322 79.2799 35.5632C80.0471 34.7942 81.1079 34.408 82.4322 34.408C83.7566 34.408 84.8281 34.796 85.6185 35.565C86.4088 36.3339 86.7986 37.3129 86.7986 38.5358Z" fill="#3993DD"/>
<path d="M113.546 23.1103V38.7049L113.08 38.0944C112.172 36.9257 110.987 36.0019 109.632 35.4066C108.192 34.7444 106.508 34.408 104.634 34.408C102.835 34.3931 101.05 34.7336 99.3829 35.4101C97.7991 36.0606 96.3662 37.03 95.1732 38.2581C93.936 39.5609 92.9831 41.1066 92.375 42.7971C91.7075 44.5771 91.3711 46.6223 91.3711 48.8651C91.3711 51.1079 91.7075 53.1496 92.375 54.9349C92.9841 56.6245 93.9369 58.1694 95.1732 59.4722C96.3654 60.7011 97.7986 61.6707 99.3829 62.3202C101.05 62.9976 102.835 63.3382 104.634 63.3223C106.667 63.3223 108.456 62.9396 109.956 62.1795C111.382 61.4825 112.601 60.4246 113.491 59.1108L113.968 58.3988V62.7207H121.088V23.1103H113.546ZM111.822 54.7623C110.435 56.2094 108.618 56.9463 106.435 56.9463C104.253 56.9463 102.437 56.2094 101.051 54.7623C99.6641 53.3151 98.9664 51.3376 98.9664 48.874C98.9664 46.4105 99.6677 44.424 101.051 42.9858C102.434 41.5476 104.255 40.8035 106.435 40.8035C108.616 40.8035 110.435 41.5369 111.822 42.9858C113.208 44.4347 113.906 46.4141 113.906 48.874C113.906 51.334 113.206 53.3169 111.822 54.7623Z" fill="#3993DD"/>
<path d="M153.148 41.6188C152.486 40.1617 151.525 38.8602 150.327 37.7989C149.034 36.6795 147.532 35.8288 145.907 35.2962C144.053 34.6874 142.111 34.3868 140.159 34.4062C138.202 34.3915 136.258 34.7316 134.422 35.4101C132.701 36.0534 131.127 37.0365 129.794 38.3008C128.457 39.5931 127.403 41.1491 126.699 42.8701C125.931 44.7767 125.55 46.817 125.578 48.8723C125.578 51.2681 125.992 53.3952 126.824 55.1948C127.59 56.9227 128.726 58.4613 130.152 59.7018C131.597 60.9281 133.273 61.8518 135.081 62.4181C137.038 63.0385 139.08 63.3485 141.133 63.3365C145.624 63.3365 149.579 62.1422 152.881 59.7766L150.624 54.6555C149.402 55.4313 148.099 56.0706 146.738 56.5619C145.205 57.1014 143.59 57.3701 141.964 57.3557C139.472 57.3557 137.456 56.8217 135.955 55.7787C134.454 54.7356 133.52 53.1087 133.233 51.0029L133.192 50.7092H153.168C153.479 50.0888 153.71 49.4307 153.853 48.7512C154.033 48.0028 154.131 47.2371 154.145 46.4675C154.162 44.7987 153.822 43.1454 153.148 41.6188ZM146.416 45.7715L146.359 45.9495H133.173L133.235 45.6416C133.529 44.0452 134.396 42.6113 135.674 41.6099C136.955 40.597 138.547 40.0826 140.401 40.0826C142.422 40.0826 143.961 40.5508 144.962 41.4728C145.962 42.3948 146.491 43.6177 146.491 45.0898C146.499 45.3194 146.474 45.5491 146.416 45.7715Z" fill="#3993DD"/>
<path d="M175.771 34.9171V42.0638C175.314 41.973 174.849 41.8858 174.386 41.8252C173.797 41.7439 173.202 41.7034 172.606 41.7042C171.76 41.6879 170.919 41.8561 170.144 42.1973C169.369 42.5385 168.677 43.0445 168.117 43.68C166.937 44.9865 166.337 46.8947 166.337 49.3529V62.7384H158.861V35.0078H165.917V40.225L166.409 39.1891C167.181 37.5657 168.206 36.3891 169.454 35.6967C170.733 34.9961 172.17 34.6351 173.628 34.6483C174.597 34.6483 175.316 34.7391 175.771 34.9171Z" fill="#3993DD"/>
<path d="M23.6615 29.9077C26.7385 29.4082 28.828 26.5089 28.3285 23.4318C27.8291 20.3548 24.9297 18.2653 21.8527 18.7648C18.7757 19.2642 16.6862 22.1635 17.1856 25.2406C17.6851 28.3176 20.5844 30.4071 23.6615 29.9077Z" fill="#E36161"/>
<path d="M45.2694 23.7137V22.3325C44.9594 16.4808 42.3821 10.98 38.084 6.9969C33.786 3.01381 28.1053 0.861764 22.247 0.997224C16.3887 1.13268 10.8135 3.54499 6.70418 7.72248C2.59482 11.9 0.274479 17.514 0.235352 23.3738C0.235352 23.4966 0.235352 23.6212 0.235352 23.7458C0.235352 23.7458 0.235352 23.76 0.235352 23.7867C0.270232 24.8977 0.389239 26.0045 0.591352 27.0975C0.593905 27.1111 0.593905 27.1249 0.591352 27.1385C1.43151 33.3133 4.07481 48.5928 11.9566 59.6057C13.1857 61.326 14.8082 62.7276 16.6889 63.6936C18.5696 64.6596 20.6539 65.1621 22.7682 65.1591C24.8824 65.1561 26.9653 64.6478 28.8433 63.6765C30.7212 62.7053 32.3398 61.2992 33.5641 59.5754C38.9041 52.0994 41.8357 41.6882 43.4306 35.0114H22.7488V42.4874H33.6691C33.6676 42.4957 33.6676 42.5041 33.6691 42.5123C32.6011 45.5864 31.2572 50.6202 29.5751 53.7779C28.9466 54.9587 28.0092 55.9467 26.8631 56.6364C25.717 57.3261 24.4051 57.6916 23.0674 57.6939H22.4622C21.1319 57.6947 19.8263 57.3351 18.6839 56.6535C17.5416 55.9718 16.6052 54.9935 15.9741 53.8224C10.7053 43.9879 8.80071 31.7611 8.14211 26.7664L7.82883 23.7725C7.84129 23.9398 7.91605 25.0185 8.14211 26.7664C7.96197 25.7928 7.85723 24.8067 7.82883 23.817V23.744C7.82883 23.6194 7.82883 23.4966 7.82883 23.372C7.8668 19.5224 9.38815 15.8358 12.0761 13.0798C14.7641 10.3238 18.4115 8.71073 22.2589 8.57654C26.1064 8.44235 29.8573 9.79735 32.7308 12.3594C35.6042 14.9214 37.3787 18.4931 37.6848 22.3307V23.712L45.2694 23.7137Z" fill="#E36161"/>
</g>
<defs>
<clipPath id="clip0_1426_2349">
<rect width="176" height="66" fill="white"/>
</clipPath>
</defs>
</svg>
